<svg width="30" height="30" viewBox="0 0 30 30" fill="none" xmlns="http://www.w3.org/2000/svg">
<path d="M14.996 0.00100005C6.714 0.00100005 0 6.715 0 14.997C0 21.582 4.245 27.177 10.148 29.192L10.254 29.223C11.004 29.364 11.279 28.901 11.279 28.502C11.279 28.146 11.267 27.202 11.26 25.953C7.089 26.858 6.209 23.941 6.209 23.941C5.921 23.016 5.331 22.256 4.556 21.757L4.54 21.748C3.182 20.818 4.645 20.837 4.645 20.837C5.632 20.976 6.459 21.555 6.934 22.367L6.942 22.382C7.496 23.377 8.542 24.039 9.743 24.039C10.319 24.039 10.859 23.887 11.325 23.62L11.309 23.628C11.381 22.837 11.73 22.139 12.258 21.623L12.259 21.622C8.929 21.247 5.428 19.957 5.428 14.212C5.428 14.185 5.427 14.154 5.427 14.123C5.427 12.602 6.014 11.218 6.974 10.185L6.971 10.189C6.768 9.647 6.65 9.021 6.65 8.368C6.65 7.591 6.816 6.852 7.115 6.186L7.101 6.22C7.101 6.22 8.357 5.818 11.225 7.757C12.349 7.436 13.64 7.251 14.974 7.251C16.308 7.251 17.599 7.436 18.823 7.781L18.723 7.757C21.572 5.818 22.828 6.22 22.828 6.22C23.113 6.862 23.279 7.61 23.279 8.397C23.279 9.039 23.169 9.655 22.966 10.227L22.978 10.189C23.931 11.221 24.516 12.605 24.516 14.126C24.516 14.157 24.516 14.187 24.515 14.217V14.212C24.515 19.973 21.01 21.241 17.673 21.61C18.305 22.257 18.695 23.142 18.695 24.119C18.695 24.212 18.691 24.305 18.684 24.397L18.685 24.385C18.685 26.392 18.666 28.004 18.666 28.491C18.666 28.885 18.928 29.353 19.697 29.203C25.725 27.174 29.989 21.574 29.989 14.977C29.989 6.705 23.283 0 15.012 0C15.006 0 14.999 0 14.993 0H14.994L14.996 0.00100005Z" fill="#69676B"/>
</svg>
