<svg width="99" height="39" viewBox="0 0 99 39" fill="none" xmlns="http://www.w3.org/2000/svg">
<path d="M41.7333 20.998C41.7333 21.362 41.6493 21.6653 41.4813 21.908C41.2667 22.216 41.0193 22.4727 40.7393 22.678C40.4313 22.8927 40.0767 23 39.6753 23H35.5873V14.6H39.6753C40.0673 14.6 40.422 14.712 40.7393 14.936C40.8327 15.0107 40.9587 15.132 41.1173 15.3C41.2853 15.468 41.4067 15.5987 41.4813 15.692C41.6493 15.944 41.7333 16.2567 41.7333 16.63V17.638C41.7333 18.0767 41.5793 18.4687 41.2713 18.814C41.5793 19.15 41.7333 19.542 41.7333 19.99V20.998ZM40.0253 20.998V19.976C39.9693 19.8827 39.8993 19.794 39.8153 19.71C39.7313 19.626 39.6753 19.584 39.6473 19.584H37.2953V21.362H39.6613C39.6893 21.362 39.7453 21.3247 39.8293 21.25C39.9133 21.166 39.9787 21.082 40.0253 20.998ZM40.0253 17.652V16.63C39.9693 16.5367 39.8993 16.448 39.8153 16.364C39.7313 16.28 39.6753 16.238 39.6473 16.238H37.2953V18.002H39.6613C39.6893 18.002 39.7453 17.9647 39.8293 17.89C39.9133 17.806 39.9787 17.7267 40.0253 17.652ZM52.1036 23H50.3816V14.6H52.1036V23ZM67.362 20.914C67.362 21.2593 67.2826 21.5487 67.124 21.782C66.732 22.286 66.3913 22.6267 66.102 22.804C65.8033 22.9813 65.4953 23.07 65.178 23.07H63.05C62.7326 23.07 62.4246 22.9813 62.126 22.804C61.986 22.72 61.804 22.566 61.58 22.342C61.3653 22.1087 61.2066 21.922 61.104 21.782C60.9453 21.5487 60.866 21.2593 60.866 20.914V16.7C60.866 16.3453 60.9453 16.0513 61.104 15.818C61.2066 15.678 61.3653 15.496 61.58 15.272C61.804 15.048 61.986 14.894 62.126 14.81C62.4246 14.6327 62.7326 14.544 63.05 14.544H65.178C65.4953 14.544 65.8033 14.6327 66.102 14.81C66.3633 14.9593 66.704 15.2953 67.124 15.818C67.2826 16.0513 67.362 16.3453 67.362 16.7V20.914ZM65.654 20.914V16.7C65.5233 16.476 65.3553 16.3033 65.15 16.182H63.092C62.8866 16.3313 62.714 16.5087 62.574 16.714V20.914C62.7606 21.166 62.9286 21.3387 63.078 21.432H65.136C65.3133 21.3013 65.486 21.1287 65.654 20.914ZM83.4627 23H81.7547V17.946C81.5774 18.3193 81.3207 18.856 80.9847 19.556C80.6581 20.2467 80.4294 20.7273 80.2987 20.998H79.1787L77.7367 17.96V23H76.0287V14.6H77.8907L79.7667 18.408C79.9347 18.072 80.2287 17.47 80.6487 16.602C81.0687 15.7247 81.3907 15.0573 81.6147 14.6H83.4627V23ZM97.7459 23H92.2299V14.6H97.7459V16.238H93.9379V17.96H97.6199V19.598H93.9379V21.362H97.7459V23Z" fill="#AA6BF9"/>
<path d="M36.056 29.296L37.928 27.2H38.792L36.608 29.6L38.8 32H37.936L36.056 29.912H35.984V32H35.328V27.2H35.984V29.296H36.056ZM43.1557 32H42.4997V27.2H43.1557V32ZM50.7129 32H49.9529L47.9369 28.336V32H47.2889V27.2H48.0649L50.0649 30.904V27.2H50.7129V32ZM58.4993 32H57.8593C57.8539 31.9627 57.8433 31.912 57.8273 31.848C57.8113 31.7787 57.8033 31.736 57.8033 31.72C57.7873 31.7307 57.7553 31.7573 57.7073 31.8C57.6593 31.8427 57.6219 31.8747 57.5953 31.896C57.5686 31.912 57.5313 31.936 57.4833 31.968C57.4406 31.9947 57.3953 32.0133 57.3473 32.024C57.3046 32.0347 57.2566 32.04 57.2033 32.04H55.9713C55.8219 32.04 55.6673 31.9947 55.5073 31.904C55.4273 31.856 55.3233 31.7707 55.1953 31.648C55.0673 31.52 54.9793 31.4187 54.9313 31.344C54.8513 31.2267 54.8113 31.0853 54.8113 30.92V28.288C54.8113 28.1227 54.8513 27.9813 54.9313 27.864C54.9846 27.7893 55.0753 27.688 55.2033 27.56C55.3313 27.4267 55.4326 27.3387 55.5073 27.296C55.6673 27.2053 55.8219 27.16 55.9713 27.16H57.2033C57.5286 27.16 57.8593 27.3787 58.1953 27.816C58.2593 27.896 58.3339 28.0293 58.4193 28.216L57.7793 28.4L57.6993 28.24C57.6566 28.16 57.5899 28.0773 57.4993 27.992C57.4086 27.9013 57.3286 27.8373 57.2593 27.8C57.2379 27.7893 57.2113 27.784 57.1793 27.784H56.0033C55.9766 27.784 55.9526 27.7893 55.9313 27.8C55.8673 27.832 55.7846 27.896 55.6833 27.992C55.5873 28.0827 55.5206 28.1653 55.4833 28.24C55.4726 28.2613 55.4673 28.2853 55.4673 28.312V30.896C55.4673 30.96 55.5286 31.0533 55.6513 31.176C55.7739 31.2933 55.8726 31.3707 55.9473 31.408C55.9579 31.4133 55.9793 31.416 56.0113 31.416H57.1633C57.1899 31.416 57.2139 31.4107 57.2353 31.4C57.3099 31.3627 57.4059 31.2853 57.5233 31.168C57.6459 31.0453 57.7073 30.952 57.7073 30.888V29.896H56.6113V29.272H58.3633V30.88C58.3633 31.0667 58.4086 31.44 58.4993 32ZM65.9456 30.888C65.9456 31.0587 65.9083 31.1973 65.8336 31.304C65.7856 31.3787 65.6976 31.48 65.5696 31.608C65.4416 31.7307 65.3376 31.816 65.2576 31.864C65.0976 31.9547 64.9456 32 64.8016 32H62.5936V27.2H64.8016C64.967 27.2 65.119 27.2427 65.2576 27.328C65.3323 27.3707 65.4336 27.4587 65.5616 27.592C65.6896 27.72 65.7803 27.824 65.8336 27.904C65.9083 28.0107 65.9456 28.1493 65.9456 28.32V30.888ZM65.2896 30.872V28.336C65.2896 28.304 65.287 28.2827 65.2816 28.272C65.2443 28.192 65.175 28.1067 65.0736 28.016C64.9723 27.9253 64.887 27.864 64.8176 27.832C64.807 27.8267 64.7883 27.824 64.7616 27.824H63.2496V31.376H64.7616C64.7723 31.376 64.783 31.376 64.7936 31.376L64.8176 31.368C64.8976 31.3307 64.9963 31.256 65.1136 31.144C65.231 31.0267 65.2896 30.936 65.2896 30.872ZM73.6374 30.92C73.6374 31.0853 73.5974 31.2267 73.5174 31.344C73.4694 31.4187 73.3814 31.52 73.2534 31.648C73.1254 31.7707 73.0214 31.856 72.9414 31.904C72.7814 31.9947 72.6268 32.04 72.4774 32.04H71.2134C71.0694 32.04 70.9174 31.9947 70.7574 31.904C70.6774 31.856 70.5708 31.7707 70.4374 31.648C70.3094 31.52 70.2214 31.4187 70.1734 31.344C70.0988 31.2373 70.0614 31.096 70.0614 30.92V28.288C70.0614 28.112 70.0988 27.9707 70.1734 27.864C70.2214 27.7893 70.3094 27.688 70.4374 27.56C70.5708 27.432 70.6774 27.344 70.7574 27.296C70.9174 27.2053 71.0694 27.16 71.2134 27.16H72.4774C72.6268 27.16 72.7814 27.2053 72.9414 27.296C73.0161 27.3387 73.1174 27.4267 73.2454 27.56C73.3734 27.688 73.4641 27.7893 73.5174 27.864C73.5974 27.9813 73.6374 28.1227 73.6374 28.288V30.92ZM72.9814 30.912V28.304C72.9814 28.2773 72.9761 28.2533 72.9654 28.232C72.9228 28.1573 72.8534 28.0747 72.7574 27.984C72.6614 27.8933 72.5841 27.832 72.5254 27.8C72.5041 27.7893 72.4801 27.784 72.4534 27.784H71.2534C71.2268 27.784 71.2028 27.7893 71.1814 27.8C71.1068 27.8373 71.0108 27.9147 70.8934 28.032C70.7761 28.1493 70.7174 28.24 70.7174 28.304V30.912C70.7174 30.9653 70.7761 31.0533 70.8934 31.176C71.0161 31.2933 71.1121 31.368 71.1814 31.4C71.2028 31.4107 71.2268 31.416 71.2534 31.416H72.4534C72.4801 31.416 72.5041 31.4107 72.5254 31.4C72.6001 31.3627 72.6934 31.288 72.8054 31.176C72.9228 31.064 72.9814 30.976 72.9814 30.912ZM81.9503 32H81.3103V28.184L80.0543 30.76H79.6223L78.3823 28.184V32H77.7343V27.2H78.5663L79.8463 29.816L81.1343 27.2H81.9503V32Z" fill="white"/>
<rect x="15.5076" y="10.8806" width="3.62687" height="3.62687" fill="#D9D9D9"/>
<rect x="19.1343" y="14.5074" width="5.23881" height="5.23881" fill="#D9D9D9"/>
<rect x="24.3733" y="19.7463" width="3.62687" height="3.62687" fill="#D9D9D9"/>
<path d="M26.1866 24.3806C26.1866 26.692 25.5012 28.9515 24.2171 30.8733C22.9329 32.7952 21.1077 34.2931 18.9723 35.1776C16.8369 36.0621 14.4871 36.2936 12.2201 35.8426C9.95314 35.3917 7.87079 34.2787 6.23639 32.6443C4.602 31.0099 3.48896 28.9275 3.03803 26.6606C2.5871 24.3936 2.81853 22.0438 3.70306 19.9084C4.58759 17.7729 6.08549 15.9477 8.00734 14.6636C9.92918 13.3795 12.1887 12.6941 14.5 12.6941" stroke="#38EB38" stroke-width="4"/>
<path d="M1 0V0C3.00306 0 4.62687 1.6238 4.62687 3.62687V24.1791H1V0Z" fill="#D9D9D9"/>
</svg>
