<svg width="29" height="39" viewBox="0 0 29 39" fill="none" xmlns="http://www.w3.org/2000/svg">
<rect x="15.5076" y="10.8806" width="3.62687" height="3.62687" fill="#D9D9D9"/>
<rect x="19.1343" y="14.5074" width="5.23881" height="5.23881" fill="#D9D9D9"/>
<rect x="24.3733" y="19.7463" width="3.62687" height="3.62687" fill="#D9D9D9"/>
<path d="M26.1866 24.3806C26.1866 26.692 25.5012 28.9515 24.2171 30.8733C22.9329 32.7952 21.1077 34.2931 18.9723 35.1776C16.8369 36.0621 14.4871 36.2936 12.2201 35.8426C9.95314 35.3917 7.87079 34.2787 6.23639 32.6443C4.602 31.0099 3.48896 28.9275 3.03803 26.6606C2.5871 24.3936 2.81853 22.0438 3.70306 19.9084C4.58759 17.7729 6.08549 15.9477 8.00734 14.6636C9.92918 13.3795 12.1887 12.6941 14.5 12.6941" stroke="#38EB38" stroke-width="4"/>
<path d="M1 0V0C3.00306 0 4.62687 1.6238 4.62687 3.62687V24.1791H1V0Z" fill="#D9D9D9"/>
</svg>
