<svg width="14" height="17" viewBox="0 0 14 17" fill="none" xmlns="http://www.w3.org/2000/svg">
<rect x="7.40869" y="4.80652" width="1.60218" height="1.60218" fill="#B9B9B9"/>
<rect x="9.01099" y="6.40869" width="2.31426" height="2.31426" fill="#B9B9B9"/>
<rect x="11.3252" y="8.7229" width="1.60218" height="1.60218" fill="#B9B9B9"/>
<path d="M12.1262 10.7701C12.1262 11.7912 11.8234 12.7893 11.2561 13.6383C10.6889 14.4873 9.88257 15.149 8.93924 15.5397C7.9959 15.9305 6.95788 16.0327 5.95643 15.8335C4.95499 15.6343 4.03511 15.1426 3.31311 14.4206C2.59111 13.6986 2.09942 12.7787 1.90022 11.7773C1.70102 10.7758 1.80326 9.73783 2.194 8.79449C2.58475 7.85115 3.24645 7.04487 4.09543 6.4776C4.94441 5.91032 5.94254 5.60754 6.9636 5.60754" stroke="#5E5E5E" stroke-width="2"/>
<path d="M1 0V0C1.88486 0 2.60218 0.71732 2.60218 1.60218V10.6812H1V0Z" fill="#B9B9B9"/>
</svg>
